<mxfile host="app.diagrams.net" modified="2021-10-11T10:23:51.304Z" agent="5.0 (Windows NT 10.0; Win64; x64) AppleWebKit/537.36 (KHTML, like Gecko) Chrome/94.0.4606.81 Safari/537.36" etag="KaAfE3otYtXuKErxedT5" version="15.5.0" type="github">
  <diagram name="Page-1" id="9f46799a-70d6-7492-0946-bef42562c5a5">
    <mxGraphModel dx="1108" dy="460" grid="1" gridSize="10" guides="1" tooltips="1" connect="1" arrows="1" fold="1" page="1" pageScale="1" pageWidth="1100" pageHeight="850" background="none" math="0" shadow="0">
      <root>
        <mxCell id="0" />
        <mxCell id="1" parent="0" />
        <mxCell id="QXcPIP2a8S9zBl9WCV5y-12" style="edgeStyle=orthogonalEdgeStyle;rounded=0;orthogonalLoop=1;jettySize=auto;html=1;entryX=0.5;entryY=0;entryDx=0;entryDy=0;" edge="1" parent="1" source="QXcPIP2a8S9zBl9WCV5y-1" target="QXcPIP2a8S9zBl9WCV5y-2">
          <mxGeometry relative="1" as="geometry" />
        </mxCell>
        <mxCell id="QXcPIP2a8S9zBl9WCV5y-1" value="Frontend" style="rounded=0;whiteSpace=wrap;html=1;" vertex="1" parent="1">
          <mxGeometry x="410" y="30" width="230" height="60" as="geometry" />
        </mxCell>
        <mxCell id="QXcPIP2a8S9zBl9WCV5y-11" style="edgeStyle=orthogonalEdgeStyle;rounded=0;orthogonalLoop=1;jettySize=auto;html=1;" edge="1" parent="1" source="QXcPIP2a8S9zBl9WCV5y-2">
          <mxGeometry relative="1" as="geometry">
            <mxPoint x="525" y="250" as="targetPoint" />
          </mxGeometry>
        </mxCell>
        <mxCell id="QXcPIP2a8S9zBl9WCV5y-13" style="edgeStyle=orthogonalEdgeStyle;rounded=0;orthogonalLoop=1;jettySize=auto;html=1;" edge="1" parent="1" source="QXcPIP2a8S9zBl9WCV5y-2">
          <mxGeometry relative="1" as="geometry">
            <mxPoint x="525" y="90" as="targetPoint" />
          </mxGeometry>
        </mxCell>
        <mxCell id="QXcPIP2a8S9zBl9WCV5y-2" value="Load Balancer" style="rounded=0;whiteSpace=wrap;html=1;" vertex="1" parent="1">
          <mxGeometry x="410" y="140" width="230" height="30" as="geometry" />
        </mxCell>
        <mxCell id="QXcPIP2a8S9zBl9WCV5y-6" style="edgeStyle=orthogonalEdgeStyle;rounded=0;orthogonalLoop=1;jettySize=auto;html=1;entryX=0;entryY=0.5;entryDx=0;entryDy=0;" edge="1" parent="1" source="QXcPIP2a8S9zBl9WCV5y-3" target="QXcPIP2a8S9zBl9WCV5y-4">
          <mxGeometry relative="1" as="geometry" />
        </mxCell>
        <mxCell id="QXcPIP2a8S9zBl9WCV5y-8" style="edgeStyle=orthogonalEdgeStyle;rounded=0;orthogonalLoop=1;jettySize=auto;html=1;entryX=0.5;entryY=0;entryDx=0;entryDy=0;" edge="1" parent="1" source="QXcPIP2a8S9zBl9WCV5y-3" target="QXcPIP2a8S9zBl9WCV5y-5">
          <mxGeometry relative="1" as="geometry" />
        </mxCell>
        <mxCell id="QXcPIP2a8S9zBl9WCV5y-10" style="edgeStyle=orthogonalEdgeStyle;rounded=0;orthogonalLoop=1;jettySize=auto;html=1;entryX=0.474;entryY=1;entryDx=0;entryDy=0;entryPerimeter=0;" edge="1" parent="1" source="QXcPIP2a8S9zBl9WCV5y-3" target="QXcPIP2a8S9zBl9WCV5y-2">
          <mxGeometry relative="1" as="geometry" />
        </mxCell>
        <mxCell id="QXcPIP2a8S9zBl9WCV5y-3" value="Backend" style="rounded=0;whiteSpace=wrap;html=1;" vertex="1" parent="1">
          <mxGeometry x="460" y="250" width="120" height="60" as="geometry" />
        </mxCell>
        <mxCell id="QXcPIP2a8S9zBl9WCV5y-7" style="edgeStyle=orthogonalEdgeStyle;rounded=0;orthogonalLoop=1;jettySize=auto;html=1;" edge="1" parent="1" source="QXcPIP2a8S9zBl9WCV5y-4">
          <mxGeometry relative="1" as="geometry">
            <mxPoint x="580" y="280" as="targetPoint" />
          </mxGeometry>
        </mxCell>
        <mxCell id="QXcPIP2a8S9zBl9WCV5y-4" value="API to connect bank" style="rounded=0;whiteSpace=wrap;html=1;" vertex="1" parent="1">
          <mxGeometry x="660" y="250" width="120" height="60" as="geometry" />
        </mxCell>
        <mxCell id="QXcPIP2a8S9zBl9WCV5y-9" style="edgeStyle=orthogonalEdgeStyle;rounded=0;orthogonalLoop=1;jettySize=auto;html=1;" edge="1" parent="1" source="QXcPIP2a8S9zBl9WCV5y-5">
          <mxGeometry relative="1" as="geometry">
            <mxPoint x="520" y="310" as="targetPoint" />
          </mxGeometry>
        </mxCell>
        <mxCell id="QXcPIP2a8S9zBl9WCV5y-5" value="DB" style="rounded=0;whiteSpace=wrap;html=1;" vertex="1" parent="1">
          <mxGeometry x="460" y="350" width="120" height="60" as="geometry" />
        </mxCell>
      </root>
    </mxGraphModel>
  </diagram>
</mxfile>
